<?xml version="1.0" encoding="utf-8"?>
<!-- Generator: Adobe Illustrator 25.0.1, SVG Export Plug-In . SVG Version: 6.00 Build 0)  -->
<svg version="1.1" id="Capa_1" xmlns="http://www.w3.org/2000/svg" xmlns:xlink="http://www.w3.org/1999/xlink" x="0px" y="0px"
	 viewBox="0 0 943.9 197.86" style="enable-background:new 0 0 943.9 197.86;" xml:space="preserve">
<style type="text/css">
	.st0{fill:#FFFFFF;}
	.st1{fill-rule:evenodd;clip-rule:evenodd;fill:#FFFFFF;}
</style>
<g>
	<g>
		<g>
			<g>
				<path class="st0" d="M689.77,103.13c0-20.61-7.95-27.48-31.46-27.48c-10.12,0-20.97,1.45-33.99,3.98l1.45,13.02
					c11.57-1.81,22.06-2.89,28.93-2.89c14.46,0,18.44,3.25,18.44,12.65v8.68c-44.83,1.81-51.34,9.04-51.34,30.01
					c0,16.27,7.59,25.31,26.03,25.31c13.38,0,22.42-3.62,26.76-11.57h1.08l2.53,9.76h13.38l-1.81-21.69V103.13z M673.14,135.31
					c0,12.29-5.79,17.36-19.89,17.36c-11.57,0-14.1-3.62-14.1-14.1c0-11.93,5.78-13.74,33.99-14.82V135.31z"/>
				<path class="st0" d="M826.8,89.39h-1.08l-1.81-11.93h-13.38l1.81,18.08v69.06h16.63v-56.4c0-15.55,3.62-17.36,27.48-16.63
					l1.81-14.82c-2.89-0.36-4.7-0.36-6.87-0.36C839.82,76.37,831.5,79.26,826.8,89.39z"/>
				<path class="st0" d="M749.07,75.65c-24.23,0-33.99,8.32-33.99,28.2c0,11.89,3.26,19.68,10.66,24.15
					c-5.07,6.39-7.41,12.66-7.41,18.15c0,4.28,1.37,8.03,4.03,10.85c-4.48,6.79-6.93,14-6.93,20.24c0,12.65,7.95,20.61,29.29,20.61
					c32.54,0,46.28-7.95,46.28-27.84c0-16.63-6.87-22.06-27.12-22.06h-22.78c-5.79,0-7.95-3.25-7.95-7.23c0-2.84,1.12-5.9,3-9.01
					c3.74,0.71,8.03,1.05,12.91,1.05c23.86,0,33.26-8.32,33.26-28.93c0-6.37-0.97-11.55-3.07-15.65l15.36-0.98l0.72-9.76h-30.31
					C760.65,76.24,755.37,75.65,749.07,75.65z M737.5,162.42h24.22c10.12,0,12.65,1.81,12.65,9.4c0,10.12-6.15,11.93-25.31,11.93
					c-15.19,0-19.16-2.17-19.16-10.49c0-4.93,0.7-7.54,2.09-11.36C733.68,162.24,735.5,162.42,737.5,162.42z M749.07,120.48
					c-12.65,0-16.99-4.34-16.99-16.63s4.34-15.91,16.99-15.91c12.29,0,16.27,3.62,16.27,15.91S761.36,120.48,749.07,120.48z"/>
				<path class="st0" d="M906.71,75.65c-28.56,0-36.83,11.21-36.83,45.2c0,34.35,8.27,45.56,36.83,45.56
					c28.93,0,37.19-11.21,37.19-45.56C943.9,86.86,935.63,75.65,906.71,75.65z M906.71,152.66c-16.63,0-19.48-6.15-19.48-31.82
					c0-25.31,2.84-31.46,19.48-31.46c16.99,0,19.84,6.15,19.84,31.46C926.55,146.52,923.7,152.66,906.71,152.66z"/>
			</g>
		</g>
		<g>
			<g>
				<path class="st0" d="M687.27,0.01c0.01-0.01-2.5,1.02-5.92,5.28l-18.98,23.63V43c0,3.69,1.41,5.41,1.41,5.41h-23.5
					c0,0,1.46-1.72,1.46-5.38V28.92l-18.8-23.44C619.52,1.22,616.95,0,616.95,0h23.84c0,0,0.68,2.39,3.18,6.21l7.94,12.15
					c0.02,0.03,0.26-0.01,0.27,0l8.02-12.15c2.51-3.8,3.2-6.2,3.2-6.2H687.27z"/>
				<path class="st0" d="M734.45,0.01h-39.1c0,0,1.48,1.72,1.48,5.39v37.66c0,3.68-1.48,5.34-1.48,5.34h23.51
					c0,0-1.42-1.72-1.41-5.4l0.01-11.71h17c10.78,0,18.93-5.54,18.93-15.6C753.37,5.61,745.53,0.01,734.45,0.01z M724.04,22.5h-6.55
					V9.02h6.62c4.77,0,8.58,1.88,8.58,6.67C732.69,20.47,728.83,22.5,724.04,22.5z"/>
				<path class="st0" d="M814.08,11.34c0,0-2.15-1.35-5.83-1.35h-23.36v11.64h18.79c3.65,0,6.27-0.82,6.27-0.82v11.55
					c0,0-2.68-1.04-6.36-1.04h-18.69v11.72c0,3.65,1.32,5.3,1.32,5.3h-23.43c0,0,1.47-1.65,1.47-5.3V5.36
					c0-3.69-1.49-5.36-1.49-5.36h51.33V11.34z"/>
			</g>
		</g>
	</g>
	<g>
		<g>
			<g>
				<path class="st1" d="M447.37,43.54l-1.04-15.96c-29.2-28.96-59.67,28.71-27.68,51c27.63,19.26,19.75,51.5-14.31,20.48
					l-1.73,13.53c11.09,7.4,24.23,14.2,34.28,10.1c34.77-14.17,17.04-55-3.74-69.79C408.55,32.03,437.42,27.23,447.37,43.54"/>
				<path class="st1" d="M370.93,56.07h24.55v50.64c-6.4,10.95-14.58,16.42-24.55,16.42V56.07z"/>
				<path class="st1" d="M370.93,50.27h16.61c6.4-0.16,8.82-3.51,8.84-5.8V26.61h-15.74c-6.73,0.16-9.59,5.63-9.7,11.65V50.27z"/>
				<path class="st1" d="M65.58,20.58H0v138.58c15.61-0.18,24.9-6.24,27.89-18.2l0.32-50.53c0.3-4.39,1.86-6.26,4.68-5.6l24.24,0.08
					l3.9-4.75l-0.38-16.39H28.46l-0.05-20.83h32.82l4.42-4.42L65.58,20.58z"/>
				<path class="st1" d="M75.57,56.07h24.55v50.64c-6.4,10.95-14.58,16.42-24.55,16.42V56.07z"/>
				<path class="st1" d="M75.57,50.27h16.61c6.4-0.16,8.82-3.51,8.84-5.8V26.61H85.27c-6.73,0.16-9.59,5.63-9.7,11.65V50.27z"/>
				<path class="st1" d="M109.04,123.14V56.07h23.21v5.8c6.85-9.18,43.54-9.78,43.74,4.53l0,40.55
					c-4.32,9.56-12.53,14.31-25.44,16.12V77.05c0.29-9.53-14.74-12.76-16.07,0v31.69C127.13,117.54,118.97,124.25,109.04,123.14"/>
				<path class="st1" d="M251.6,55.07l0.47,67.8c11.67-0.12,22.45-4.73,24.68-13.12l0.24-35.46c0.22-3.08,1.39-4.39,3.5-3.93
					l18.13,0.05l2.92-3.33l-0.28-11.5L251.6,55.07z"/>
				<path class="st1" d="M305.95,55.88h23.25l0.35,57.95c18.12,1.56,26.06-22.34,29.38-57.8l8.79-0.15
					c-3.05,27.78-5.51,61.57-29.15,66.98h-32.62V55.88z"/>
				<path class="st1" d="M219.45,111.54c-4.46,11.72-12.87,14.36-24.96,11.14c-16.85-4.48-18.42-21.17-10-33.45
					c10.79-15.72,29.24-3.81,35.13-13.94c1.62-8.29-11.58-12.53-20.15-5.84l-6.36,0.5c4.13-21.35,52.23-17.88,52.23,5.84v40.08
					l2.78,4.84v2.34h-21.89l-4.86-8.02V89.16c-7.43,0.42-13.74,2.21-17.96,6.54c-3.89,4-4.96,7.68-1.76,12.45
					C204.85,112.91,211.04,113.7,219.45,111.54"/>
			</g>
		</g>
		<g>
			<line class="st0" x1="527.77" y1="145.61" x2="527.77" y2="25.5"/>
			<path class="st0" d="M527.77,147.04c-0.79,0-1.42-0.64-1.42-1.42V25.5c0-0.79,0.64-1.42,1.42-1.42s1.42,0.64,1.42,1.42v120.12
				C529.2,146.4,528.56,147.04,527.77,147.04z"/>
		</g>
	</g>
</g>
</svg>
