<?xml version="1.0" encoding="utf-8"?>
<!-- Generator: Adobe Illustrator 25.0.1, SVG Export Plug-In . SVG Version: 6.00 Build 0)  -->
<svg version="1.1" id="Capa_1" xmlns="http://www.w3.org/2000/svg" xmlns:xlink="http://www.w3.org/1999/xlink" x="0px" y="0px"
	 viewBox="0 0 560.03 187.63" style="enable-background:new 0 0 560.03 187.63;" xml:space="preserve">
<style type="text/css">
	.st0{fill-rule:evenodd;clip-rule:evenodd;fill:#FFFFFF;}
	.st1{fill:#FFFFFF;}
</style>
<g>
	<path class="st0" d="M446.46,46.04l-1-15.28c-27.95-27.72-57.11,27.48-26.49,48.82c26.44,18.44,18.91,49.3-13.7,19.61l-1.66,12.95
		c10.62,7.08,23.19,13.59,32.81,9.67c33.28-13.56,16.31-52.65-3.58-66.8C409.31,35.02,436.94,30.43,446.46,46.04"/>
	<path class="st0" d="M373.3,58.03h23.5v48.47c-6.12,10.48-13.96,15.72-23.5,15.72V58.03z"/>
	<path class="st0" d="M373.3,52.48h15.89c6.12-0.16,8.44-3.36,8.46-5.55v-17.1h-15.07c-6.44,0.15-9.18,5.39-9.29,11.16V52.48z"/>
	<path class="st0" d="M88.79,0H0v187.63c21.13-0.24,33.72-8.45,37.76-24.64l0.43-68.42c0.4-5.95,2.52-8.48,6.34-7.59l32.82,0.1
		l5.28-6.43l-0.51-22.19H38.53l-0.07-28.2H82.9l5.98-5.98L88.79,0z"/>
	<path class="st0" d="M90.59,58.03h23.5v48.47c-6.12,10.48-13.96,15.72-23.5,15.72V58.03z"/>
	<path class="st0" d="M90.59,52.48h15.89c6.12-0.16,8.44-3.36,8.46-5.55v-17.1H99.88c-6.44,0.15-9.18,5.39-9.29,11.16V52.48z"/>
	<path class="st0" d="M122.63,122.23V58.03h22.22v5.55c6.56-8.79,41.68-9.36,41.87,4.34l0,38.81c-4.13,9.15-11.99,13.7-24.35,15.42
		V78.11c0.28-9.12-14.11-12.21-15.38,0v30.33C139.94,116.87,132.14,123.29,122.63,122.23"/>
	<path class="st0" d="M259.09,57.07l0.45,64.9c11.17-0.12,21.48-4.53,23.62-12.56l0.23-33.94c0.21-2.95,1.33-4.2,3.35-3.76
		l17.35,0.05l2.79-3.19l-0.27-11.01L259.09,57.07z"/>
	<path class="st0" d="M311.11,57.85h22.25l0.33,55.47c17.35,1.49,24.95-21.38,28.12-55.33l8.42-0.14
		c-2.92,26.59-5.27,58.94-27.9,64.11h-31.22V57.85z"/>
	<path class="st1" d="M556.62,125.17v-3.4h3.4v3.4H556.62z M537.14,125.17v-24.31h3.22v21.44h11.97v2.87H537.14z M528.3,125.17v-3.4
		h3.4v3.4H528.3z M506.58,111.59h6.92c1.47,0,2.62-0.15,3.45-0.46c0.83-0.31,1.46-0.79,1.89-1.46c0.43-0.67,0.65-1.39,0.65-2.18
		c0-1.15-0.41-2.09-1.25-2.84c-0.83-0.74-2.15-1.11-3.96-1.11h-7.69V111.59z M503.36,125.17v-24.31h10.78
		c2.17,0,3.81,0.22,4.94,0.66s2.03,1.21,2.71,2.31c0.67,1.11,1.01,2.33,1.01,3.67c0,1.73-0.55,3.17-1.67,4.36
		c-1.12,1.18-2.84,1.93-5.18,2.26c0.86,0.41,1.5,0.81,1.94,1.21c0.94,0.86,1.83,1.94,2.67,3.23l4.23,6.62h-4.05l-3.21-5.06
		c-0.94-1.46-1.72-2.58-2.33-3.35c-0.61-0.77-1.15-1.32-1.63-1.63c-0.48-0.31-0.97-0.53-1.47-0.65c-0.37-0.07-0.96-0.11-1.79-0.11
		h-3.73v10.79H503.36z M494.34,125.17v-3.4h3.4v3.4H494.34z M470.13,117.36l3.03-0.27c0.14,1.22,0.47,2.21,1,2.99
		c0.53,0.78,1.34,1.41,2.44,1.89c1.1,0.48,2.35,0.72,3.73,0.72c1.23,0,2.31-0.18,3.25-0.54c0.94-0.37,1.64-0.87,2.1-1.5
		c0.46-0.64,0.69-1.33,0.69-2.08c0-0.76-0.22-1.43-0.67-2c-0.44-0.57-1.17-1.05-2.18-1.43c-0.66-0.25-2.09-0.65-4.33-1.19
		c-2.23-0.54-3.8-1.04-4.69-1.52c-1.16-0.6-2.03-1.36-2.6-2.26c-0.57-0.9-0.85-1.91-0.85-3.03c0-1.22,0.34-2.37,1.04-3.44
		c0.7-1.07,1.72-1.88,3.05-2.43c1.34-0.55,2.83-0.83,4.46-0.83c1.81,0,3.39,0.29,4.77,0.87c1.38,0.58,2.43,1.43,3.17,2.56
		c0.74,1.13,1.14,2.41,1.2,3.83l-3.09,0.23c-0.17-1.54-0.73-2.7-1.69-3.48c-0.96-0.79-2.37-1.18-4.23-1.18
		c-1.95,0-3.36,0.36-4.26,1.07c-0.89,0.71-1.34,1.57-1.34,2.57c0,0.88,0.32,1.6,0.94,2.16c0.62,0.57,2.24,1.14,4.85,1.73
		c2.62,0.6,4.41,1.11,5.38,1.55c1.41,0.66,2.46,1.48,3.14,2.48c0.67,1,1.01,2.16,1.01,3.46c0,1.3-0.37,2.51-1.11,3.66
		c-0.74,1.14-1.81,2.03-3.19,2.67c-1.39,0.63-2.95,0.95-4.68,0.95c-2.2,0-4.05-0.32-5.53-0.96c-1.49-0.64-2.65-1.6-3.5-2.89
		C470.62,120.44,470.17,118.98,470.13,117.36z"/>
	<path class="st0" d="M228.31,111.13c-4.27,11.22-12.32,13.75-23.89,10.67c-16.13-4.29-17.64-20.27-9.57-32.01
		c10.33-15.05,27.99-3.65,33.63-13.34c1.56-7.93-11.09-12-19.29-5.59l-6.09,0.48c3.95-20.43,49.99-17.11,49.99,5.59v38.36l2.66,4.64
		v2.24H234.8l-4.66-7.67V89.71c-7.11,0.4-13.15,2.11-17.19,6.26c-3.73,3.82-4.75,7.35-1.69,11.92
		C214.33,112.44,220.26,113.19,228.31,111.13"/>
</g>
</svg>
