<?xml version="1.0" encoding="utf-8"?>
<!-- Generator: Adobe Illustrator 25.0.1, SVG Export Plug-In . SVG Version: 6.00 Build 0)  -->
<svg version="1.1" id="Capa_1" xmlns="http://www.w3.org/2000/svg" xmlns:xlink="http://www.w3.org/1999/xlink" x="0px" y="0px"
	 viewBox="0 0 500 500" style="enable-background:new 0 0 500 500;" xml:space="preserve">
<style type="text/css">
	.st0{fill:#40B149;}
</style>
<path class="st0" d="M356.66,158.58c15.24,0,26.68-11.98,26.68-27.21c0-15.77-10.35-33.74-26.68-48.43
	C340.33,97.63,330,115.6,330,131.37C330,146.6,341.42,158.58,356.66,158.58 M292.44,129.19L345.77,59l-16.86-15.79l-62.04,62.59
	L292.44,129.19z M209.72,342.51V231.5c0-7.07,2.73-10.33,8.71-10.33c5.99,0,8.71,3.27,8.71,10.33v91.43
	c10.35,0,16.33-3.27,16.33-16.33v-76.72c0-19.06-3.27-25.59-16.33-33.2l12.52-12.51c3.81-3.81,8.16-5.44,11.42-5.44
	c6.53,0,9.8,4.89,9.8,12.51v113.19c0,26.68-11.97,38.09-39.18,38.09L209.72,342.51L209.72,342.51z M116.68,400.19h95.22v-21.77
	h-95.22V400.19z M141.16,456.79h43.54v-43.54h-43.54V456.79z M116.68,364.28H221.7c40.82,0,60.95-19.59,60.95-59.86V142.26
	l-27.21-25.57L144.42,227.7c-19.59,19.59-27.75,39.72-27.75,66.93L116.68,364.28L116.68,364.28z"/>
</svg>
