<?xml version="1.0" encoding="utf-8"?>
<!-- Generator: Adobe Illustrator 25.0.1, SVG Export Plug-In . SVG Version: 6.00 Build 0)  -->
<svg version="1.1" id="Capa_1" xmlns="http://www.w3.org/2000/svg" xmlns:xlink="http://www.w3.org/1999/xlink" x="0px" y="0px"
	 viewBox="0 0 500 500" style="enable-background:new 0 0 500 500;" xml:space="preserve">
<style type="text/css">
	.st0{fill:#40B149;}
</style>
<path class="st0" d="M315.48,241.73c0,11.71,2.76,21.36,8.27,30.33l42.04-42.74c2.76-2.76,5.51-4.83,9.65-4.83
	c4.83,0,8.97,4.14,8.97,8.97c0,4.82-2.08,7.57-4.83,10.33l-41.36,41.36c8.27,6.21,19.3,9.65,31.03,9.65
	c41.36,0,64.8-53.77,64.8-104.08v-13.79c-5.51,0-11.73-0.7-17.24-0.7C367.87,176.23,315.48,199.67,315.48,241.73 M286.53,307.2
	v102.02c0,9.65,6.89,14.48,13.79,14.48s13.79-4.83,13.79-14.48V307.2H286.53z M65.95,105.24c0,97.88,46.87,203.34,127.51,203.34
	c24.82,0,47.57-9.65,65.49-24.12l-95.13-94.44c-4.14-4.14-6.21-8.95-6.21-13.09c0-6.21,5.51-11.03,11.73-11.03
	c4.14,0,8.27,1.38,13.09,5.51l94.45,95.81c14.47-17.92,22.06-39.28,22.06-63.42c0-81.34-102.72-127.51-198.52-127.51
	c-11.03,0-22.06,1.38-33.09,2.08C65.95,86.64,65.95,96.29,65.95,105.24"/>
</svg>
