<?xml version="1.0" encoding="utf-8"?>
<!-- Generator: Adobe Illustrator 25.0.1, SVG Export Plug-In . SVG Version: 6.00 Build 0)  -->
<svg version="1.1" id="Capa_1" xmlns="http://www.w3.org/2000/svg" xmlns:xlink="http://www.w3.org/1999/xlink" x="0px" y="0px"
	 viewBox="0 0 500 500" style="enable-background:new 0 0 500 500;" xml:space="preserve">
<style type="text/css">
	.st0{fill:#40B149;}
</style>
<path class="st0" d="M327.9,454.04c7.57,0,13.09-4.83,13.09-12.41c0-7.59-8.27-13.79-15.16-20.68l-17.92,17.22
	C315.49,446.45,321.69,454.04,327.9,454.04 M250.7,447.82c19.3,0,36.52-6.89,50.31-17.22l-75.81-75.82
	c-3.46-3.46-4.83-6.89-4.83-10.35c0-6.89,5.51-12.41,12.41-12.41c3.44,0,6.89,1.38,10.33,4.83l75.82,76.51
	c10.35-13.79,15.86-30.33,15.86-48.93c0-65.48-82.02-102.02-158.54-102.02c-8.95,0-17.92,0.68-26.87,1.38
	c-0.7,6.89-0.7,14.48-0.7,21.38C148.68,363.73,185.9,447.82,250.7,447.82 M192.79,233.46H307.9c24.14,0,39.98-10.33,53.77-31.01
	L430.6,99.73L340.3,45.96l-34.47,54.46c-6.89,11.03-15.86,15.85-28.95,15.85h-79.96c-11.71,0-20.68,1.38-30.33,9.65l-83.4,69.61
	c-11.03,8.97-13.79,15.18-13.79,20.7c0,7.57,6.19,13.79,14.47,13.79c3.46,0,7.59-0.7,16.54-6.21l76.52-46.87
	c11.03-6.89,20.68-7.57,32.39-4.14l64.8,17.24v6.89l-81.34,10.33c-11.03,1.38-15.85,7.59-15.85,13.11
	C176.95,227.26,182.46,233.46,192.79,233.46"/>
</svg>
