<?xml version="1.0" encoding="utf-8"?>
<!-- Generator: Adobe Illustrator 25.0.1, SVG Export Plug-In . SVG Version: 6.00 Build 0)  -->
<svg version="1.1" id="Capa_1" xmlns="http://www.w3.org/2000/svg" xmlns:xlink="http://www.w3.org/1999/xlink" x="0px" y="0px"
	 viewBox="0 0 500 500" style="enable-background:new 0 0 500 500;" xml:space="preserve">
<style type="text/css">
	.st0{fill:#40B149;}
</style>
<path class="st0" d="M388.55,426.46c32.41,0,56.52-19.3,56.52-44.8c0-17.92-8.27-28.95-24.12-28.95c-6.89,0-11.03,1.38-13.79,3.44
	c0,11.73-2.76,16.54-18.62,16.54c-15.84,0-17.92-4.82-17.92-16.54c-3.44-2.06-7.57-3.44-13.79-3.44
	c-16.54,0-24.81,11.03-24.81,28.95C332.03,408.54,354.79,426.46,388.55,426.46 M388.55,147.29c32.41,0,56.52-19.3,56.52-44.8
	c0-18.62-8.27-28.95-24.12-28.95c-6.89,0-11.03,0.68-13.79,3.44c0,11.73-2.76,16.54-18.62,16.54c-15.84,0-17.92-4.82-17.92-16.54
	c-3.44-2.76-7.57-3.44-13.79-3.44c-16.54,0-24.81,10.33-24.81,28.95C332.03,128.69,354.79,147.29,388.55,147.29 M388.55,240.36
	c32.41,0,56.52-19.3,56.52-44.82c0-17.92-8.27-28.95-24.12-28.95c-6.89,0-11.03,1.38-13.79,3.46c0,11.71-2.76,16.54-18.62,16.54
	c-15.84,0-17.92-4.83-17.92-16.54c-3.44-2.08-7.57-3.46-13.79-3.46c-16.54,0-24.81,11.03-24.81,28.95
	C332.03,222.44,354.79,240.36,388.55,240.36 M388.55,333.41c32.41,0,56.52-19.3,56.52-44.81c0-18.6-8.27-28.93-24.12-28.93
	c-6.89,0-11.03,0.68-13.79,3.44c0,11.71-2.76,16.54-18.62,16.54c-15.84,0-17.92-4.83-17.92-16.54c-3.44-2.76-7.57-3.44-13.79-3.44
	c-16.54,0-24.81,10.33-24.81,28.93C332.03,314.79,354.79,333.41,388.55,333.41 M111.47,147.29c32.39,0,56.52-19.3,56.52-44.8
	c0-18.62-8.27-28.95-24.14-28.95c-6.89,0-11.03,0.68-13.79,3.44c0,11.73-2.76,16.54-18.6,16.54c-15.86,0-17.92-4.82-17.92-16.54
	c-3.46-2.76-7.59-3.44-13.79-3.44c-16.54,0-24.82,10.33-24.82,28.95C54.94,128.69,77.68,147.29,111.47,147.29 M111.47,333.41
	c32.39,0,56.52-19.3,56.52-44.81c0-18.6-8.27-28.93-24.14-28.93c-6.89,0-11.03,0.68-13.79,3.44c0,11.71-2.76,16.54-18.6,16.54
	c-15.86,0-17.92-4.83-17.92-16.54c-3.46-2.76-7.59-3.44-13.79-3.44c-16.54,0-24.82,10.33-24.82,28.93
	C54.94,314.79,77.68,333.41,111.47,333.41 M250.01,426.46c32.39,0,56.52-19.3,56.52-44.8c0-17.92-8.27-28.95-24.14-28.95
	c-6.89,0-11.03,1.38-13.79,3.44c0,11.73-2.76,16.54-18.6,16.54c-15.86,0-17.92-4.82-17.92-16.54c-3.46-2.06-7.59-3.44-13.79-3.44
	c-16.54,0-24.82,11.03-24.82,28.95C193.49,408.54,216.22,426.46,250.01,426.46 M111.47,426.46c32.39,0,56.52-19.3,56.52-44.8
	c0-17.92-8.27-28.95-24.14-28.95c-6.89,0-11.03,1.38-13.79,3.44c0,11.73-2.76,16.54-18.6,16.54c-15.86,0-17.92-4.82-17.92-16.54
	c-3.46-2.06-7.59-3.44-13.79-3.44c-16.54,0-24.82,11.03-24.82,28.95C54.94,408.54,77.68,426.46,111.47,426.46 M250.01,147.29
	c32.39,0,56.52-19.3,56.52-44.8c0-18.62-8.27-28.95-24.14-28.95c-6.89,0-11.03,0.68-13.79,3.44c0,11.73-2.76,16.54-18.6,16.54
	c-15.86,0-17.92-4.82-17.92-16.54c-3.46-2.76-7.59-3.44-13.79-3.44c-16.54,0-24.82,10.33-24.82,28.95
	C193.49,128.69,216.22,147.29,250.01,147.29 M250.01,240.36c32.39,0,56.52-19.3,56.52-44.82c0-17.92-8.27-28.95-24.14-28.95
	c-6.89,0-11.03,1.38-13.79,3.46c0,11.71-2.76,16.54-18.6,16.54c-15.86,0-17.92-4.83-17.92-16.54c-3.46-2.08-7.59-3.46-13.79-3.46
	c-16.54,0-24.82,11.03-24.82,28.95C193.49,222.44,216.22,240.36,250.01,240.36 M111.47,240.36c32.39,0,56.52-19.3,56.52-44.82
	c0-17.92-8.27-28.95-24.14-28.95c-6.89,0-11.03,1.38-13.79,3.46c0,11.71-2.76,16.54-18.6,16.54c-15.86,0-17.92-4.83-17.92-16.54
	c-3.46-2.08-7.59-3.46-13.79-3.46c-16.54,0-24.82,11.03-24.82,28.95C54.94,222.44,77.68,240.36,111.47,240.36 M250.01,333.41
	c32.39,0,56.52-19.3,56.52-44.81c0-18.6-8.27-28.93-24.14-28.93c-6.89,0-11.03,0.68-13.79,3.44c0,11.71-2.76,16.54-18.6,16.54
	c-15.86,0-17.92-4.83-17.92-16.54c-3.46-2.76-7.59-3.44-13.79-3.44c-16.54,0-24.82,10.33-24.82,28.93
	C193.49,314.79,216.22,333.41,250.01,333.41"/>
</svg>
