<?xml version="1.0" encoding="utf-8"?>
<!-- Generator: Adobe Illustrator 25.0.1, SVG Export Plug-In . SVG Version: 6.00 Build 0)  -->
<svg version="1.1" id="Capa_1" xmlns="http://www.w3.org/2000/svg" xmlns:xlink="http://www.w3.org/1999/xlink" x="0px" y="0px"
	 viewBox="0 0 500 500" style="enable-background:new 0 0 500 500;" xml:space="preserve">
<style type="text/css">
	.st0{fill:#40B149;}
</style>
<path class="st0" d="M373.72,250c20,0,32.41-11.71,32.41-31.71v-59.96l58.58-59.98V77.67h-160.6v20.68l61.34,59.98L373.72,250z
	 M364.08,422.33c26.89,0,46.87-19.98,46.87-46.87c0-26.87-21.36-46.18-48.93-45.49l-13.79-166.12h-43.44v211.61h12.41
	C317.2,403.73,335.83,422.33,364.08,422.33 M364.08,393.38c-11.03,0-17.22-6.19-17.22-17.22s6.2-17.24,17.22-17.24
	c11.03,0,17.24,6.21,17.24,17.24S375.1,393.38,364.08,393.38 M35.29,422.33h90.29c86.85,0,105.47-46.87,158.54-46.87V163.85
	C129.7,163.85,35.29,261.73,35.29,422.33"/>
</svg>
